<svg xmlns="http://www.w3.org/2000/svg" viewBox="0 0 267.42 92.64"><defs><style>.cls-1{fill:red;}.cls-2{fill:#fff600;}.cls-3{fill:#00ff06;}.cls-4{fill:#ff00de;}</style></defs><title>next</title><g><path class="cls-1" d="M19.92,2.29l7,6c0-2,.67-3,2-3h1l14,35.86v2h-1l-2-6h-1v2l7,16.93h1A517,517,0,0,1,59.3,2l3,2,3-1,6,3V7q-3,0-3,4h1l1,1h1l1-5h2V8l-1,1,1,1v1q-7.5,23-13.48,66h-2l2-15.94q-2,0-6,18.93c-2.47,2-4.79,3-7,3v2h-1c0-1.33-1.33-2-4-2V76q0-4.52-19.92-49.81h-1q-4,17.76-7,47.81l-1-1q-6,1.76-6,5H6Q4,74.24,4,65H3v9H1L0,69Q0,42,12,3.28ZM6,27.19v1l1,1-1,1v2H7l1-4-1-1ZM43.83,43.12q2.58,0,4,8v1h-1Z"/><path class="cls-2" d="M130,1.82l4.81,3.34q-2.11,8.85-7.62,8.49l-26,1.17-.11,2,4.92.35,6-.59.94,1.12,1,.05,7-.58,2,.17-.06,1-23.14,2.4L97.91,33.63l1,.06L126,31.52l.88,1.06-.06,1-2-.17v1l6.86,1.53-.06,1q-2.16,5.58-28.59,9l-10,.35.94,1L89.12,59.94h-1l.59-9-1-.06L85.78,64.75q29.82-4,42.13-3.17l4.86,1.35-.06,2-2-.12.88,1.06-.17,3Q128.55,72.6,119.24,72l-.06,1,8,.53-.18,2L80.62,82.32l-1,0c-3.2-.71-4.81-1.74-4.81-3.11V79L75,76l2.75-10.79-.93-1,2,.06-.35,5,1,.12c.39-3.32,1.17-4.93,2.35-4.81l-.94-1.11.7-9.9-2-.18-1.35,4.92,1.12-.94,1,.06-.41,6-1-.12.17-2.93-1-.06-.12,2-1-.06.12-2,3.16-16.82-1-.06,2.28-4.8-.94-1.06.06-1,2.17-16.82.94,1.05,1,.06.11-2-.64-5L85.84,4.8l.18-3,1,.11L88,3l1-.94,1,.12.94,1,1-.93,3,.23ZM80.1,45.35l-.47,7,1,.06.47-6.91ZM113,46.64h1l-.11,1-18,1.81-.94-1.11.06-.94,9-.41-.06,1Z"/><path class="cls-3" d="M151.93.23q11,5.63,11,15.94l6,9,3-3h1l-4,6,1,1h1q22.26-25.89,28.89-25.9,3.63,0,6,5c2,0,3,.67,3,2q0,3.75-16.93,16.93L177.83,42.07v2a159,159,0,0,1,14.94,32.87l-1,3h1l-5,7h-3v-2l-3,2L168.87,56h-1Q158.21,67.79,148,89.88h-2v-2l1-1-1-1v-1q5-12.12,17.93-32.87h1V49Q145,76.58,145,83.91l-4,2q-3.22,0-7-7,0-5.62,23.91-41.84Q148.77,20,147,11.19h1l-4-10h1l1,1ZM136,78.93l21.91-34.87c1.33,0,2-1.33,2-4h-1Q141.27,63.17,136,78.93Zm42.83-63.75h1l-7,7v-1Zm2,14.94-2,3h1l2-3Zm14-28.89h1l-14.94,14h-1v-1Zm-13,77.7v1l1,4h1v-4l-1-1Z"/><path class="cls-4" d="M264.43,0l3,1V3h-3l2,3q-2.18,5-15.94,5l-7,1-1,3h1q-3,7.1-12,63.75l3,13h-1q-2.22,0-4-10l1-10v-1h-1v2c-2,0-3,.67-3,2v1l2,15.94v1h-2l-4-3-1,1h-1q-4-8.61-4-14.94l1,1h1l-2-7,3-1v-5h-2v-1c2,0,3-.66,3-2v-1h-2c0-5.32,1-8,3-8V38.85q1.59-1.41,4-20.92l-7,1-13.94-1v-1l5-1v1l1-1h15V13l-15.94,2-1-1h-1l-6,1-3-2,1-5-1-1q0-5,11.95-5ZM221.6,58.77l-2,21.91h2l-1-5v-2l2-3h-1l1-1v-1l-1-1v-1l2-4-1-4ZM258.46,3V4h4V3Z"/></g></svg>
